<?xml version="1.0" standalone="no"?>
<!DOCTYPE svg PUBLIC "-//W3C//DTD SVG 20010904//EN"
 "http://www.w3.org/TR/2001/REC-SVG-20010904/DTD/svg10.dtd">
<svg version="1.0" xmlns="http://www.w3.org/2000/svg"
 width="260.000000pt" height="260.000000pt" viewBox="0 0 260.000000 260.000000"
 preserveAspectRatio="xMidYMid meet">
<metadata>
Created by potrace 1.11, written by Peter Selinger 2001-2013
</metadata>
<g transform="translate(0.000000,260.000000) scale(0.100000,-0.100000)"
fill="#000000" stroke="none">
<path d="M1185 1768 c-3 -7 -4 -267 -3 -578 l3 -565 50 0 50 0 3 578 2 577
-50 0 c-31 0 -52 -5 -55 -12z"/>
<path d="M435 1741 c-81 -21 -166 -86 -191 -148 -8 -18 -14 -62 -14 -98 0
-154 82 -215 349 -260 145 -25 191 -57 191 -132 0 -99 -60 -144 -202 -151
-103 -5 -190 17 -282 73 -32 19 -60 35 -62 35 -2 0 -4 -34 -4 -75 l0 -75 38
-16 c56 -24 209 -54 279 -54 167 0 286 61 339 175 43 91 27 186 -42 252 -49
48 -86 61 -271 98 -140 28 -176 43 -198 85 -33 64 -6 138 64 175 80 41 236 26
354 -34 l77 -39 0 72 0 72 -72 24 c-59 20 -97 25 -198 27 -69 1 -138 -2 -155
-6z"/>
<path d="M1903 1740 c-115 -24 -231 -119 -279 -227 -78 -176 -43 -431 75 -550
133 -133 374 -160 605 -67 l66 26 0 189 0 189 -181 0 -180 0 3 -51 3 -51 115
-1 115 -2 3 -106 3 -106 -47 -13 c-169 -48 -337 -15 -415 79 -63 76 -74 114
-74 251 0 109 3 131 23 170 35 72 78 116 140 147 52 26 66 28 162 27 117 -1
173 -18 264 -79 28 -18 54 -31 58 -29 13 8 9 131 -4 142 -7 5 -47 22 -88 37
-64 24 -93 28 -200 31 -69 2 -144 -1 -167 -6z"/>
</g>
</svg>
